<svg id="Layer_1" data-name="Layer 1" xmlns="http://www.w3.org/2000/svg" viewBox="0 0 1000 1000"><defs><style>.cls-1{fill:#fbee42;}</style></defs><rect class="cls-1" width="1000" height="1000"/><g id="s0aSZr"><path d="M569,177.56q7.22,50.2,14.44,100.4l-8.89,3.54-25.19-37.59c-.59,16.63-4.38,33.42,15.69,43.38,18.07,9,34.06,22.28,52.36,30.61,18.07,8.22,37.89,12.6,59,15-25.48-10.65-30.1-32.84-35.9-54.67-6.58-24.8-14.42-49.26-21.18-74-5.75-21,.43-35.14,16.43-39.59,16.7-4.63,29.28,3.49,35.51,24,7.47,24.55,13.23,49.67,21.86,73.79,3.27,9.12,11,18.5,19.22,23.65,21.71,13.56,44.5,25.55,67.5,36.85,17.2,8.45,29.14,20.67,37.58,37.79,18.81,38.12,38.69,75.72,57.86,113.67,19.49,38.58,5,66.71-37.17,72.85-7.35,1.07-14.6,3.31-22,3.66-36.26,1.75-64,14.92-77.23,51.8-4.74,13.18-16.43,21.1-30.86,12.08-13.13-8.23-11.07-20.13-3.84-31.85,3.18-5.17,6.36-10.37,9.06-15.8,14-28.08,29.18-54.49,68.05-50.78C759.8,510.18,739.51,505.89,720,520c-7,5.09-15.21,8.73-23.14,12.44-11.65,5.46-23,5.76-29.34-7.48-6-12.62-.41-22.56,11.32-28.54C707.75,481.64,734,457.7,776,475.25c-15.37-30.28-26.75-53.74-39.33-76.54-2.36-4.27-9.38-7.95-14.54-8.37-34.17-2.77-68.41-4.57-105.84-6.89,11.67,15.81,20.93,29.79,31.88,42.3,3.08,3.51,11.16,2.53,16.88,3.88,5.56,1.3,11,2.95,20.52,5.51-33,22.82-34.21,22.61-52.76-2.93-6.33-8.71-12.93-17.23-21.36-28.42-30.75,26.12-73.66,33.08-95,74-18.21,35-48.08,61.68-83.41,80.64a125.52,125.52,0,0,1-32,12.22c-33,7.19-53.08-10.35-50.27-44,3-35.81,20.66-65.44,43.52-91.79,14.9-17.19,32-32.46,51.63-52.07-27.53-12.67-54.88-23.05-79.86-37.52-17.24-10-31.93-15.54-51.53.78-2.66-12.17-4.67-21.35-6.28-28.73,16.67.34,32.79,3.95,46.07-.64,5.34-1.85,4.43-21.72,6.57-34.64-31.54-5.37-58.43-14.58-79.72-36.35-40-40.94-46-101.71-14.13-150.67,29.11-44.69,88.47-63.61,139.6-44.51,52.87,19.76,83.91,73,76.06,129.13-1.16,8.35-2.09,22.14,2.24,24.87,14.46,9.12,31.09,15.29,47.61,20.13,2.63.77,9.86-10.63,13.38-17.25,5.28-10,9.17-20.66,13.65-31ZM453.67,190.61c13.5-41.56.1-80.34-34.73-106-30.44-22.42-75.77-22.82-106.63-.93-35.19,25-49.79,67.57-36.77,107.28,12,36.72,46.18,62.93,89.82,63.31-1.59-25.57-4-51.09-4.52-76.66-.51-26.94,4.94-29.75,29.83-17.75C411.29,169.8,431.82,179.94,453.67,190.61Zm-15,290.81-4-6.9c21.59-24.72,59.94-19.42,85-41.75-16.58-10.44-32-21.1-48.43-29.88-4.66-2.49-13.94-1.83-18.22,1.31-37.71,27.71-68.88,61-80.76,107.86-7.56,29.87,9,45.35,38.18,35.46,43.45-14.72,72-47,93.87-87.74ZM541.93,415l7.24,2c1.86-3,5.47-6.16,5.24-9a170.9,170.9,0,0,0-4.57-25.8c-5.18-21.61-4.27-45.18-26.43-60.64-5.19-3.63-3.31-19.43-2.28-29.38,1.09-10.59,5-20.88,7.72-31.31l-6.69-3.26-94.39,51.59c2,12.45,3.57,22.53,5.64,35.62l-18.76-7.33c7.76,7.58,16.65,12.23,24.63,18.11,17.49,12.89,34.1,18.19,57.21,10.67,31.67-10.31,48.12,5,48.45,39C545,408.52,543,411.76,541.93,415ZM383.76,286.72c-.48,3.36-1.66,11.56-3.26,22.67l122.4-67.61c-29.24-21.75-27.8-20.08-52,.74C431.52,259.12,408.12,271,383.76,286.72ZM446,217.6l-3.27-8.07-56.29-27.12c-1.42,23.91-2.8,47.12-4.18,70.32l4.9,4.85ZM573.15,354l-5.72,3.36c3,14,5.93,28,9.43,44.56l21.55-15.28Z"/><path d="M312.47,561.42c17.18,17.18,30.18,33.19,46.37,44.72,5.56,4,19.09-3.27,32.22-6.08L579.44,788.44,563,809.88l52,52c16-24,28.63-13.59,42.34,2.17,13.23,15.2,28.35,28.77,45,45.37-16.19,16.19-31,31.53-46.6,46-2.24,2.09-9,1.69-12.19-.15-5.11-3-9-8-13.33-12.34Q349,661.9,68,380.82c-20-20-19.93-20,.46-40.41C100.84,308,100.84,308,133,340.16c59.75,59.75,119.24,119.76,179.44,179.05C326.43,533,338.72,544.76,312.47,561.42Z"/><path d="M918.47,573.43c12.37,5.38,26.95,7.81,28,13.05,1.83,8.78-2.63,21.09-8.49,28.86-27.3,36.2-73.59,35.37-99-2.12l11.85-8.46c-12.86-26.12-5.93-49.51,17.42-58.13C891.06,538.21,911.38,550.15,918.47,573.43Z"/></g></svg>